<svg width="142" height="73" viewBox="0 0 142 73" fill="none" xmlns="http://www.w3.org/2000/svg">
<mask id="path-1-inside-1_32_3266" fill="white">
<path fill-rule="evenodd" clip-rule="evenodd" d="M26.4792 10.6689L19.2396 0L12 10.6689H26.4792ZM5 11C2.23858 11 0 13.2385 0 16V68C0 70.7614 2.23858 73 5 73H137C139.761 73 142 70.7614 142 68V16C142 13.2385 139.761 11 137 11H5Z"/>
</mask>
<path fill-rule="evenodd" clip-rule="evenodd" d="M26.4792 10.6689L19.2396 0L12 10.6689H26.4792ZM5 11C2.23858 11 0 13.2385 0 16V68C0 70.7614 2.23858 73 5 73H137C139.761 73 142 70.7614 142 68V16C142 13.2385 139.761 11 137 11H5Z" fill="white"/>
<path d="M19.2396 0L20.0671 -0.561501L19.2396 -1.78094L18.4121 -0.561501L19.2396 0ZM26.4792 10.6689V11.6689H28.3663L27.3067 10.1074L26.4792 10.6689ZM12 10.6689L11.1725 10.1074L10.1129 11.6689H12V10.6689ZM18.4121 0.561501L25.6518 11.2304L27.3067 10.1074L20.0671 -0.561501L18.4121 0.561501ZM12.8275 11.2304L20.0671 0.561501L18.4121 -0.561501L11.1725 10.1074L12.8275 11.2304ZM26.4792 9.66891H12V11.6689H26.4792V9.66891ZM1 16C1 13.7908 2.79086 12 5 12V9.99997C1.68629 9.99997 -1 12.6863 -1 16H1ZM1 68V16H-1V68H1ZM5 72C2.79086 72 1 70.2091 1 68H-1C-1 71.3137 1.68629 74 5 74V72ZM137 72H5V74H137V72ZM141 68C141 70.2091 139.209 72 137 72V74C140.314 74 143 71.3137 143 68H141ZM141 16V68H143V16H141ZM137 12C139.209 12 141 13.7908 141 16H143C143 12.6863 140.314 9.99997 137 9.99997V12ZM5 12H137V9.99997H5V12Z" fill="#E0E0E0" mask="url(#path-1-inside-1_32_3266)"/>
</svg>
